<?xml version="1.0" ?><!DOCTYPE svg  PUBLIC '-//W3C//DTD SVG 1.1//EN'  'http://www.w3.org/Graphics/SVG/1.1/DTD/svg11.dtd'><svg enable-background="new 0 0 512 512" height="512px" id="Layer_1" version="1.1" viewBox="0 0 512 512" width="512px" xml:space="preserve" xmlns="http://www.w3.org/2000/svg" xmlns:xlink="http://www.w3.org/1999/xlink"><g id="calendar"><path d="M124,85.307C124,92.87,117.87,99,110.307,99h-5.615C97.13,99,91,92.87,91,85.307V36.693   C91,29.13,97.13,23,104.693,23h5.615C117.87,23,124,29.13,124,36.693V85.307z" fill="#333333"/><path d="M456.897,52H448v33.758C448,102.746,433.947,117,416.96,117h-5.705C394.267,117,380,102.746,380,85.758V52   H141v33.758C141,102.746,127.003,117,110.015,117h-5.705C87.322,117,74,102.746,74,85.758V52H54.103C29,52,8,72.065,8,97.169   v333.189C8,455.461,29,476,54.103,476h402.793C482,476,503,455.461,503,430.358V97.169C503,72.065,482,52,456.897,52z M468,430.358   c0,6.186-4.918,11.642-11.103,11.642H54.103C47.918,442,43,436.543,43,430.358V171h425V430.358z" fill="#333333"/><path d="M431,85.307C431,92.87,424.87,99,417.307,99h-5.615C404.13,99,398,92.87,398,85.307V36.693   C398,29.13,404.13,23,411.693,23h5.615C424.87,23,431,29.13,431,36.693V85.307z" fill="#333333"/><g><path d="M115.58,405.027v-16.232l20.742-20.141c49.9-47.495,72.445-72.746,72.746-102.205    c0-19.84-9.619-38.176-38.778-38.176c-17.736,0-32.466,9.018-41.484,16.533l-8.417-18.637    c13.527-11.423,32.766-19.84,55.311-19.84c42.085,0,59.82,28.858,59.82,56.814c0,36.071-26.152,65.231-67.335,104.91    l-15.632,14.429v0.601h87.776v21.944H115.58z" fill="#333333"/><path d="M351.547,405.027V351.82h-90.783v-17.435l87.176-124.75h28.557v121.444h27.355v20.741h-27.355v53.207    H351.547z M351.547,331.079v-65.231c0-10.221,0.3-20.442,0.901-30.662h-0.901c-6.013,11.423-10.822,19.84-16.233,28.858    l-47.795,66.433v0.602H351.547z" fill="#333333"/></g></g></svg>