<svg xmlns="http://www.w3.org/2000/svg">
    <symbol id="menu-btn-close" viewBox="-247 370.9 100 100">
      <path d="M-183.6 413.2l-22.6 22.6c-1.2 1.2-3.1 1.2-4.2 0-1.2-1.2-1.2-3.1 0-4.2l22.6-22.6c1.2-1.2 3.1-1.2 4.2 0s1.2 3 0 4.2z"/><path d="M-187.8 435.8l-22.6-22.6c-1.2-1.2-1.2-3.1 0-4.2 1.2-1.2 3.1-1.2 4.2 0l22.6 22.6c1.2 1.2 1.2 3.1 0 4.2-1.1 1.2-3 1.2-4.2 0z"/><path d="M-197 461.9c-22.6 0-41-18.4-41-41s18.4-41 41-41 41 18.4 41 41-18.4 41-41 41zm0-76c-19.3 0-35 15.7-35 35s15.7 35 35 35 35-15.7 35-35-15.7-35-35-35z"/>
    </symbol>
    <symbol id="menu-btn" viewBox="0 0 100 100">
      <path d="M66 39H34a3 3 0 0 1 0-6h32a3 3 0 0 1 0 6zM66 53H34a3 3 0 0 1 0-6h32a3 3 0 0 1 0 6zM66 67H34a3 3 0 0 1 0-6h32a3 3 0 0 1 0 6z"/><path d="M50 91a41 41 0 1 1 41-41 41 41 0 0 1-41 41zm0-76a35 35 0 1 0 35 35 35 35 0 0 0-35-35z"/>
    </symbol></svg>