<?xml version="1.0" encoding="utf-8"?>
<!-- Generator: Adobe Illustrator 19.0.0, SVG Export Plug-In . SVG Version: 6.00 Build 0)  -->
<svg version="1.1" class="menu-btn-close" xmlns="http://www.w3.org/2000/svg" xmlns:xlink="http://www.w3.org/1999/xlink" x="0px" y="0px"
	 viewBox="-247 370.9 100 100" style="enable-background:new -247 370.9 100 100;" xml:space="preserve">
<path d="M-183.6,413.2l-22.6,22.6c-1.2,1.2-3.1,1.2-4.2,0c-1.2-1.2-1.2-3.1,0-4.2l22.6-22.6c1.2-1.2,3.1-1.2,4.2,0
	S-182.4,412-183.6,413.2z"/>
<path d="M-187.8,435.8l-22.6-22.6c-1.2-1.2-1.2-3.1,0-4.2c1.2-1.2,3.1-1.2,4.2,0l22.6,22.6c1.2,1.2,1.2,3.1,0,4.2
	C-184.7,437-186.6,437-187.8,435.8z"/>
<path d="M-197,461.9c-22.6,0-41-18.4-41-41s18.4-41,41-41s41,18.4,41,41S-174.4,461.9-197,461.9z M-197,385.9c-19.3,0-35,15.7-35,35
	c0,19.3,15.7,35,35,35s35-15.7,35-35C-162,401.6-177.7,385.9-197,385.9z"/>
</svg>
